<svg xmlns="http://www.w3.org/2000/svg" width="12.714" height="25.489" viewBox="0 0 12.714 25.489">
  <path id="Path_71" data-name="Path 71" d="M632.082,178.5l1.185.1.736.066v4.066c-.078,0-.165,0-.252,0-.854.013-1.711-.008-2.562.05a1.52,1.52,0,0,0-1.623,1.573c-.072,1.223-.017,2.453-.017,3.7h4.092l-.564,4.542h-3.545v11.388h-4.558V192.613H621.29v-4.542h3.676v-.291c0-1.154-.011-2.308.006-3.462a6.935,6.935,0,0,1,.568-2.782,4.947,4.947,0,0,1,3.845-2.934l.556-.1Z" transform="translate(-621.29 -178.5)" fill="#fafafa"/>
</svg>
