<svg xmlns="http://www.w3.org/2000/svg" viewBox="0 0 365.19 409.55"><defs><style>.cls-1{fill:#2d9dd8;}</style></defs><title>attachIcon</title><g id="Layer_2" data-name="Layer 2"><g id="Layer_1-2" data-name="Layer 1"><path class="cls-1" d="M64,409.55C58,408,51.7,407,46,404.69,20.25,394.37,5,375.31.88,347.9c-3.6-24.15,4-44.94,21.05-62.25Q122.13,184.21,222.36,82.77c10.82-11,23.57-15.34,38.77-13.34,20.55,2.69,36.15,21.63,35,42.34A43.76,43.76,0,0,1,283,141.27q-96,97.14-192,194.36c-3.31,3.35-6.81,6.12-11.81,5.55-9.3-1.08-13.72-12.26-7.89-19.87a38.5,38.5,0,0,1,3.28-3.49Q170,221.21,265.48,124.63c6-6.07,8.47-12.9,5.29-21-4.23-10.79-18.14-14.41-27.41-7.3a37.39,37.39,0,0,0-3.81,3.53Q139.29,201.24,39.07,302.68c-20.78,21-20.13,52.23,1.41,71.17,18.24,16,48,14.84,65.78-2.9s35.48-35.8,53.19-53.72q78.48-79.35,157-158.67c14.15-14.28,22.27-31.13,24-51.26,3.22-36.55-22.44-72.23-58.27-80.14-29.71-6.57-55.54.57-77.21,22.29q-73.59,73.77-147.31,147.4c-4,4-8.28,6.73-14.22,4.73A11.93,11.93,0,0,1,37.55,183a29.23,29.23,0,0,1,3-3.23Q114.76,105.56,189,31.31C210.9,9.4,237.32-1.77,268.26.23c38.63,2.49,67.85,21.22,85.35,55.8,17,33.64,15,67.42-4.41,99.75a107.73,107.73,0,0,1-15.66,19.61Q230.37,280.09,127,384.57C114.1,397.62,99.53,406.78,81.05,409c-.37,0-.71.39-1.07.6Z"/></g></g></svg>