<svg xmlns="http://www.w3.org/2000/svg" viewBox="0 0 202.66 232.71"><defs><style>.cls-1{fill:#2d9dd8;}</style></defs><title>earning-icon</title><g id="Layer_2" data-name="Layer 2"><g id="Layer_1-2" data-name="Layer 1"><path class="cls-1" d="M101.32,47.17a69.2,69.2,0,1,1-69.14,69.61A68.8,68.8,0,0,1,101.32,47.17Zm0,128c31.92.1,58.48-26.22,58.84-58.33S134,57.91,101.69,57.59c-32.07-.31-58.94,26.32-59.11,58.56S69.06,175,101.29,175.15Z"/><path class="cls-1" d="M98.89,13.6c-2.14-1.78-4.39-3.43-6.37-5.36-2.38-2.33-2.88-5.56-.1-7.31C94.26-.22,98.3-.38,99.8.88c5.59,4.7,10.6,10.1,15.7,15.36,2.64,2.72,2.52,5.68-.14,8.39-5,5.1-10,10.23-15.21,15.18-2.47,2.36-5.44,2.66-8,0s-1.84-5.14.39-7.53c1.76-1.9,3.57-3.76,6-6.35a76.69,76.69,0,0,0-30,5.89c-32.25,13.43-52.09,37.48-56.82,72-4.84,35.34,8.12,64.27,36.59,86q1,.77,2,1.44c3.17,2.06,4.26,4.93,2.08,8s-5.63,2.9-8.28.51C36.52,193,28,186.74,21.72,178.76-25.53,119.08,8.48,30,83.39,16.57c4.72-.85,9.54-1.12,14.32-1.66Z"/><path class="cls-1" d="M108,217.64c3.26,2.88,5.62,4.69,7.65,6.83,2.23,2.35,2.76,5.65,0,7.38-1.81,1.14-5.84,1.19-7.35-.08-5.59-4.7-10.57-10.13-15.73-15.34-2.52-2.54-2.67-5.32-.13-7.92,5.12-5.24,10.1-10.66,15.67-15.39,1.56-1.33,5.59-1.53,7.36-.44,3,1.86,2.37,5.16,0,7.76-1.63,1.81-3.35,3.52-5,5.28l.63,1.34c7.45-2,15.2-3.22,22.29-6.09,32.74-13.25,52.82-37.54,57.52-72.46,4.72-35.1-8.14-63.93-36.43-85.59-.79-.6-1.64-1.14-2.45-1.71-2.89-2-3.84-4.8-1.89-7.75s5-2.91,7.89-1a98.08,98.08,0,0,1,26,25.29c43,60.44,7.53,146.24-65.6,158.48C115.55,216.69,112.65,217,108,217.64Z"/><path class="cls-1" d="M107,143.41c-.93,4.29,1,9.88-5.45,10-6.86.12-4.68-5.86-5.86-10.24-2.72,0-5.49,0-8.26,0-3.83-.06-7.24-.94-7.11-5.68.12-4.42,3.32-5.16,7-5.13,8.11.07,16.22,0,23.85,0,.59-.65.79-.77.8-.9,1.12-9.93,1.12-9.93-8.81-9.89-4,0-8,.12-12,0-7-.23-10.74-4-11-10.87-.1-3-.07-6,0-9,.11-7.8,3.75-11.63,11.45-12.11l4-.25c1.32-3.9-1.18-10.32,6.07-10,6.4.28,4.18,6,5.4,10.25,2.68,0,5.45,0,8.22,0,3.83,0,7.25.93,7.12,5.66-.11,4.41-3.29,5.18-7,5.15-8.12-.07-16.23,0-23.86,0-.59.64-.79.76-.8.89-1.13,9.92-1.13,9.92,8.8,9.9,4,0,8-.13,12,0,7,.22,10.74,4,11,10.88.1,3,.07,6,0,9-.12,7.82-3.75,11.63-11.46,12.12Z"/></g></g></svg>