<svg xmlns="http://www.w3.org/2000/svg" viewBox="0 0 288.21 345.86"><defs><style>.cls-1{fill:#2d9dd8;}</style></defs><title>idea-icon</title><g id="Layer_2" data-name="Layer 2"><g id="Layer_1-2" data-name="Layer 1"><path class="cls-1" d="M146.09,0c2.76,2.2,3.47,5.05,3.41,8.54-.19,11.12.07,22.25-.21,33.36a7.49,7.49,0,0,1-3.12,5.3c-1.26.77-3.95.18-5.46-.72-1.14-.68-2-2.8-2-4.3-.16-12.13-.24-24.27.07-36.39,0-2,2.11-3.86,3.24-5.79Z"/><path class="cls-1" d="M144.08,280.63q-19.08,0-38.16,0c-6.44,0-8-1.67-7.87-8a81.66,81.66,0,0,0-4.63-29.15,38.07,38.07,0,0,0-10-15.05c-12.58-11.89-21.2-26.19-25.16-43-7.76-33,.42-61.76,24.35-85.64C99.4,83,120.2,74.51,143.77,74.64c31.95.18,57.4,13.88,75,40.61,15.07,22.89,18.32,47.94,10.4,74.26-3.88,12.91-9.93,25-19.84,34-14.36,13.05-18.76,29.28-18.85,47.58,0,.79,0,1.58,0,2.36-.15,5.17-2,7.12-7.24,7.14C170.2,280.66,157.14,280.63,144.08,280.63Zm35.3-11.33c.41-4.15.68-8.28,1.27-12.37,2.07-14.35,7.14-27.18,17.66-37.74,22.34-22.41,29-49.38,20-79.39a76.92,76.92,0,0,0-89.41-53.07c-30,6.21-50.55,24.46-59.35,53.8-8.85,29.52-1.88,56.12,20,78.14a59.21,59.21,0,0,1,16.66,30.58c1.34,6.56,2.08,13.25,3.12,20.05Z"/><path class="cls-1" d="M143.74,313.46c-11.92,0-23.85.08-35.78,0-5.48-.05-9.37-3-11.64-7.82s-1.57-9.45,1.61-13.65a13.35,13.35,0,0,1,11.16-5.33c23.29-.06,46.59-.12,69.88,0,8.15.05,13.91,5.91,13.92,13.48s-5.93,13.25-14,13.34c-11.7.13-23.4,0-35.11,0Zm.12-11.13H176.6c.9,0,2,.25,2.66-.12,1-.49,2.25-1.49,2.25-2.27s-1.19-1.88-2-2.57c-.43-.35-1.31-.15-2-.15q-33.58,0-67.18,0a5.18,5.18,0,0,0-2.62.32,3.25,3.25,0,0,0-1.45,2.29,3,3,0,0,0,1.56,2.18,8.65,8.65,0,0,0,3.32.31Q127.48,302.35,143.86,302.33Z"/><path class="cls-1" d="M143.79,345.85c-8,0-16,0-23.95,0s-14.06-5.59-14.21-13.12,5.88-13.69,14-13.74q24.45-.14,48.91,0c8,.05,13.94,6,13.89,13.49s-6.1,13.27-14,13.37H143.79Zm.29-16.24H120.82c-1.94,0-4.22-.22-4.18,2.55,0,2.45,2.13,2.45,4,2.45q23.43,0,46.85,0c1.86,0,3.9,0,3.82-2.57s-2.14-2.43-4-2.43Z"/><path class="cls-1" d="M78.43,67.64c-1.77-1.48-3.46-2.34-4.36-3.72Q64.31,49,54.82,33.85c-2.1-3.35-1.45-6.54,1.36-8.24,2.65-1.61,5.91-.85,7.88,2.19,6.48,10,13,20,19.11,30.14a7.82,7.82,0,0,1,.15,6.21C82.69,65.62,80.34,66.36,78.43,67.64Z"/><path class="cls-1" d="M249.49,111.32c-1.2-1-3.34-1.83-3.8-3.25-.57-1.75.12-4,.59-5.93.17-.69,1.25-1.25,2-1.67,10.45-5.67,20.9-11.36,31.42-16.92,3.16-1.68,6.63-.69,7.93,1.91s.21,6-2.9,7.68q-15.66,8.55-31.42,16.93A26.85,26.85,0,0,1,249.49,111.32Z"/><path class="cls-1" d="M43.17,104.45c-.14,5.79-4.51,7.8-9,5.36-9.29-5-18.53-10.08-27.78-15.14-1.28-.7-2.58-1.37-3.8-2.16-2.57-1.66-3.14-4-2-6.73s3.92-3.64,6.79-2.71A12.09,12.09,0,0,1,9.52,84C19.38,89.34,29.29,94.61,39,100.16,41,101.26,42.24,103.46,43.17,104.45Z"/><path class="cls-1" d="M236.84,32.47a21.43,21.43,0,0,1-1.46,3Q225.63,50.27,215.77,65c-2.24,3.35-5,4.07-7.66,2.24s-3.29-4.73-1.17-8q9.9-15.08,20-30c1.41-2.08,3.4-3.33,6.07-2.4C235.34,27.63,236.75,29.22,236.84,32.47Z"/><path class="cls-1" d="M213,162.93c0,1,0,2,0,3-.11,3.28-2.09,5.53-5,5.7-3.07.18-5.34-2-5.78-5.34-.64-4.88-.9-9.87-2.07-14.63a57.63,57.63,0,0,0-50.09-43.12c-1.9-.18-3.81-.3-5.71-.47-3.69-.34-5.88-2.57-5.67-5.77.19-3,2.54-5,6.06-5a68.38,68.38,0,0,1,43.46,15.82C203.1,125.22,212.53,144.32,213,162.93Z"/></g></g></svg>