<svg xmlns="http://www.w3.org/2000/svg" viewBox="0 0 229.78 232"><defs><style>.cls-1{fill:#2d9dd8;}</style></defs><title>marketplace-icon</title><g id="Layer_2" data-name="Layer 2"><g id="Layer_1-2" data-name="Layer 1"><path class="cls-1" d="M24.76,16c-5.41,0-10.54.05-15.66,0C3.52,15.92.11,13,0,8.2-.11,3.26,3.41.09,9.23.05Q20,0,30.72.05c6,.05,8.66,2.63,9.31,8.68C41.13,19,42.26,29.18,43.45,40H211.37c14.11,0,20.66,8.12,17.72,22q-9.09,42.9-18.25,85.77c-2.73,12.77-12.1,20.19-25.37,20.2H65c-16.11,0-25.3-8.57-26.95-24.56-3.87-37.57-7.9-75.12-11.85-112.67C25.7,26,25.27,21.23,24.76,16ZM214,56.37H45.16c3,29.15,6,57.93,9,86.69.69,6.53,3.57,9,10.24,9q57.21,0,114.42,0c14.51,0,14.6,0,17.66-14.06C202.37,110.86,208.13,83.75,214,56.37Z"/><path class="cls-1" d="M71.91,184A24,24,0,1,1,48,207.83,24.07,24.07,0,0,1,71.91,184ZM72,200a8,8,0,1,0,8,7.87A8.14,8.14,0,0,0,72,200Z"/><path class="cls-1" d="M192,208A24,24,0,1,1,168.19,184,24.11,24.11,0,0,1,192,208Zm-16-.14A8.23,8.23,0,0,0,167.9,200,8.14,8.14,0,0,0,160,208a8,8,0,1,0,16-.12Z"/></g></g></svg>