<svg xmlns="http://www.w3.org/2000/svg" viewBox="0 0 511.99 421.79"><defs><style>.cls-1{fill:#2d9dd8;}</style></defs><title>message-logo</title><g id="Layer_2" data-name="Layer 2"><g id="Layer_1-2" data-name="Layer 1"><path class="cls-1" d="M512,277c-2.33,8.78-3.73,17.94-7.16,26.27-16.2,39.18-45.55,61.61-87.75,66.79a155.62,155.62,0,0,1-18.46.78q-100.49.08-201-.05a11.06,11.06,0,0,0-8.69,3.62c-13.55,13.79-27.26,27.42-41,41.07-8.34,8.32-16.44,8.38-24.73.12-15.23-15.15-30.35-30.42-45.67-45.49a22.62,22.62,0,0,0-7.82-5C30.39,350.13,7.28,322,1,280.23a97.73,97.73,0,0,1-.9-14.42q-.09-79.49,0-159c0-47.2,27.52-86.05,72.05-101.53C83.31,1.4,95,0,106.93,0Q256.16.12,405.38.13A128.23,128.23,0,0,1,426.71,2c42.91,7.35,78.46,44.52,84.21,87.71A38.41,38.41,0,0,0,512,94ZM135.66,385.3C147.9,373,160.2,361.06,172,348.64c5.48-5.75,11.5-8.12,19.43-8.1q105.46.29,210.94,0a93.81,93.81,0,0,0,21.77-2.16c35.16-8.56,57.77-38,57.83-74.79q.13-78.39,0-156.79a80.54,80.54,0,0,0-1.51-15.88c-7.35-36.17-37.21-60.58-74.51-60.9-20.66-.17-41.32,0-62,0Q225.49,30,107,30c-43.17.06-76.44,31.9-76.89,74.66-.57,54.48-.44,109,0,163.45.26,32.53,21.6,59.73,52.61,69.6a34.68,34.68,0,0,1,12.94,7.81C109.15,358.45,122.17,371.82,135.66,385.3Z"/><path class="cls-1" d="M256.09,143.86q46.76,0,93.49,0c9,0,15.25,4.83,16.38,12.23,1.47,9.65-5,17.45-14.83,17.84-.66,0-1.33,0-2,0q-93.24,0-186.48,0c-9.8,0-16.31-5.52-16.76-14-.47-8.8,5.4-15.48,14.22-15.92,4.82-.23,9.66-.12,14.49-.12Q215.36,143.84,256.09,143.86Z"/><path class="cls-1" d="M256.24,196.9q46.74,0,93.49,0c9.94,0,16.38,6,16.43,14.85a14.88,14.88,0,0,1-13.68,15.12,29.77,29.77,0,0,1-3,.08q-93.49,0-187,0c-9.73,0-16.24-5.63-16.63-14.19-.41-8.77,5.54-15.59,14.38-15.74,14.49-.26,29-.12,43.49-.13Q230,196.89,256.24,196.9Z"/></g></g></svg>