<svg xmlns="http://www.w3.org/2000/svg" viewBox="0 0 338.28 383.99"><defs><style>.cls-1{fill:#2d9dd8;}</style></defs><title>notificationIcon</title><g id="Layer_2" data-name="Layer 2"><g id="Layer_1-2" data-name="Layer 1"><path class="cls-1" d="M174.07,0c4.86,2.14,10.18,3.61,14.48,6.56,9.21,6.32,13.8,15.54,14,26.78.09,5.49,0,11,0,16.54a115.4,115.4,0,0,1,43.79,24.79c21.82,19.87,35,44.39,37.85,73.85,1.18,12.26.9,24.7.81,37.06-.16,19.68,1.09,39.15,6.35,58.23A178.3,178.3,0,0,0,332.61,318c2,2.22,4.05,5,4.7,7.85C338.94,333,333.42,339,325.77,339c-32.49,0-65,.08-97.47-.08-3.46,0-4.59,1.09-5.47,4.23a56.13,56.13,0,0,1-108,0c-.88-3.16-2-4.23-5.48-4.21-32.11.16-64.23.05-96.34.14-5.4,0-9.65-1.64-11.91-6.67-2.34-5.19-.64-9.6,3.13-13.62,23.48-25,38.75-54.36,45-88.07,2.14-11.6,2.73-23.54,3.28-35.35.53-11.6.09-23.24.12-34.86C52.7,111.15,85,66.53,131.72,51c1.05-.35,2.09-.73,3.37-1.17,0-5.17,0-10.27,0-15.38,0-16.72,10.21-29.68,26.42-33.71A18.89,18.89,0,0,0,163.57,0ZM36.84,316.25h264.9c-1.33-1.9-2.39-3.41-3.44-4.93C278,282,265.9,249.54,263.43,213.9c-1.07-15.43-.5-31-.89-46.46a186.06,186.06,0,0,0-1.46-21.64c-7.37-51.08-59.7-87.28-110.3-76.48C105.5,79,75.12,116.52,75.06,162.91c0,12.5.11,25,0,37.5A191.24,191.24,0,0,1,55,284.48C49.51,295.37,42.91,305.68,36.84,316.25Zm100.6,22.82c4.14,13.78,19.57,23.81,33.86,22.33,13.85-1.44,27.56-12.15,28.54-22.33Zm20.16-294h22.45c0-4.07.2-7.93,0-11.75a11.19,11.19,0,0,0-22.35-.3C157.36,37,157.6,41,157.6,45.08Z"/><path class="cls-1" d="M.09,156.21c1.83-44.27,18-82.34,49.09-114a11.27,11.27,0,0,1,16.13-.44c4.61,4.46,4.68,11.42-.18,16.41a151.08,151.08,0,0,0-26,35.51c-11,21.06-16.2,43.55-16.59,67.24-.15,9.17-9.15,14.5-16.84,10.05a10.64,10.64,0,0,1-5.59-9.15C0,160,.09,158.08.09,156.21Z"/><path class="cls-1" d="M337.55,156.62c0,1.5,0,3,0,4.5-.11,6.44-4.78,11.26-11,11.36a11,11,0,0,1-11.47-11.23c-.35-21.33-4.48-41.81-13.48-61.23A147.92,147.92,0,0,0,273,58.7c-6.05-6.2-5.15-14.93,1.78-18.7,4.69-2.55,9.93-1.69,14,2.47,22.81,23.29,38.12,50.73,44.88,82.67,2.18,10.32,3.12,20.91,4.63,31.38Z"/></g></g></svg>