<svg xmlns="http://www.w3.org/2000/svg" viewBox="0 0 89.97 99.11"><defs><style>.cls-1{fill:#1778f2;}</style></defs><title>Asset 2</title><g id="Layer_2" data-name="Layer 2"><g id="Layer_1-2" data-name="Layer 1"><path d="M67.82,67.18c5.81,6.76,11.47,13.31,17.1,19.89a19.3,19.3,0,0,1,2.77,3.53c1.38,2.72,4,6.08.59,8.3-1.33.86-5.62-1.11-7.34-2.94-6.5-6.91-12.5-14.29-18.69-21.5l-1.49-1.74c-11.3,6.39-23.06,8.17-35.41,3.42a38.41,38.41,0,0,1-20.59-18A39.36,39.36,0,0,1,66.92,11.27C82.25,26.29,82.69,46.92,67.82,67.18ZM39.28,72C57.69,72,72.75,57.35,72.74,39.4c0-17.76-14.86-32.41-33-32.53C21.27,6.75,6.23,21.17,6.05,39.17S20.92,71.92,39.28,72Z"/></g></g></svg>