<svg xmlns="http://www.w3.org/2000/svg" viewBox="0 0 252.8 224.72"><defs><style>.cls-1{fill:none;stroke:#2d9dd8;stroke-miterlimit:10;stroke-width:15px;}.cls-2{fill:#2d9dd8;}</style></defs><title>userAssistance-icon_1</title><g id="Layer_2" data-name="Layer 2"><g id="Layer_1-2" data-name="Layer 1"><path class="cls-1" d="M114.05,14.63,9.43,195.83a14.26,14.26,0,0,0,12.35,21.39H231a14.26,14.26,0,0,0,12.35-21.39L138.75,14.63A14.26,14.26,0,0,0,114.05,14.63Z"/><path class="cls-2" d="M130.21,140.5v19.83H121.5V132c2.36-.17,4.73-.19,7.05-.53a17.2,17.2,0,0,0,14.78-17.61A17.48,17.48,0,0,0,128,96.65c-8.18-1.2-16.71,4.38-19,12.52-.42,1.49-.57,3-.88,4.77H99.58c-1.36-11,8.83-23.53,21-25.82a26.54,26.54,0,0,1,31,19.46C155.12,122.14,146.51,137.14,130.21,140.5Z"/><path class="cls-2" d="M130.18,168.47v8.32h-8.67v-8.32Z"/></g></g></svg>